<?xml version="1.0"?>
<!DOCTYPE svg PUBLIC "-//W3C//DTD SVG 1.0//EN"
	"http://www.w3.org/TR/2001/REC-SVG-20010904/DTD/svg10.dtd">
<svg xmlns:x="http://ns.adobe.com/Extensibility/1.0/"
	xmlns:i="http://ns.adobe.com/AdobeIllustrator/10.0/" xmlns:graph=""
	xmlns="http://www.w3.org/2000/svg" xmlns:xlink="http://www.w3.org/1999/xlink"
	xmlns:a="http://ns.adobe.com/AdobeSVGViewerExtensions/3.0/" width="116"
	height="127" viewBox="-0.358 -0.104 116 127" overflow="visible"
	enable-background="new -0.358 -0.104 116 127" xml:space="preserve">
	<g id="Layer_1_2_">
		<g>
			<path d="M114.828 0.5 L0.5 0.5 L0.5 126.396 L81.201 126.396 L114.828 92.769 z"
				 style="fill:rgb(255,255,255)"/>
			<linearGradient id="XMLID_1_" gradientUnits="userSpaceOnUse" x1="57.5845"
				y1="154.013" x2="57.5845" y2="-101.487">
				<stop offset="0" style="stop-color:rgb(255,255,255)"/>
				<stop offset="0.2457" style="stop-color:rgb(246,246,246)"/>
				<stop offset="0.6374" style="stop-color:rgb(223,223,223)"/>
				<stop offset="1" style="stop-color:rgb(196,196,196)"/>
				<a:midPointStop offset="0" style="stop-color:#FFFFFF"/>
				<a:midPointStop offset="0.6045" style="stop-color:#FFFFFF"/>
				<a:midPointStop offset="1" style="stop-color:#C4C4C4"/>
			</linearGradient>
			<path
				d="M111.398 3.467 L3.93 3.467 L3.77 126.121 L80.227 126.121 L111.399 94.869 L111.399
					3.467 z"
				 style="fill:url(#XMLID_1_)"/>
			<linearGradient id="XMLID_2_" gradientUnits="userSpaceOnUse" x1="-32.6685"
				y1="-26.8843" x2="49.8302" y2="55.6144">
				<stop offset="0" style="stop-color:rgb(178,178,178)"/>
				<stop offset="1" style="stop-color:rgb(130,130,130)"/>
				<a:midPointStop offset="0" style="stop-color:#B2B2B2"/>
				<a:midPointStop offset="0.5" style="stop-color:#B2B2B2"/>
				<a:midPointStop offset="1" style="stop-color:#828282"/>
			</linearGradient>
			<path
				d="M114.828 0 L0 0 L0 126.896 L81.408 126.896 L115.328 92.976 L115.328 0 zM114.328 1
					C114.328 1.987 114.328 92.152 114.328 92.563 C114.039 92.852 81.283 125.608
					80.994 125.897 C80.584 125.897 1.984 125.897 1 125.897 C1 124.908 1 1.988
					1 1 C1.986 1 113.342 1 114.328 1 z"
				 style="fill:url(#XMLID_2_)"/>
			<linearGradient id="XMLID_3_" gradientUnits="userSpaceOnUse" x1="36.6875"
				y1="24.8701" x2="197.672" y2="110.514">
				<stop offset="0" style="stop-color:rgb(255,255,255)"/>
				<stop offset="0.8603" style="stop-color:rgb(218,218,218)"/>
				<stop offset="1" style="stop-color:rgb(212,212,212)"/>
				<a:midPointStop offset="0" style="stop-color:#FFFFFF"/>
				<a:midPointStop offset="0.5254" style="stop-color:#FFFFFF"/>
				<a:midPointStop offset="1" style="stop-color:#D4D4D4"/>
			</linearGradient>
			<path
				d="M111.67 14.671 L111.67 3.388 L3.863 3.388 L3.767 68.728 C13.742 73.275 24.918 75.824
					36.721 75.824 C74.066 75.824 105.119 48.325 111.67 14.671 z"
				 style="fill:url(#XMLID_3_)"/>
		</g>
		<linearGradient id="XMLID_4_" gradientUnits="userSpaceOnUse" x1="-10.0635"
			y1="10.0996" x2="121.257" y2="10.0996">
			<stop offset="0" style="stop-color:rgb(179,202,255)"/>
			<stop offset="1" style="stop-color:rgb(0,83,189)"/>
			<a:midPointStop offset="0" style="stop-color:#B3CAFF"/>
			<a:midPointStop offset="0.5" style="stop-color:#B3CAFF"/>
			<a:midPointStop offset="1" style="stop-color:#0053BD"/>
		</linearGradient>
		<path
			d="M111.356 16.471 L3.972 16.471 L3.972 3.728 L111.357 3.728 L111.357 16.471 z"
			 style="fill:url(#XMLID_4_)"/>
		<path
			d="M87.642 87.896 C87.642 96.457 75.106 103.396 59.642 103.396 C44.178 103.396 31.642
				96.457 31.642 87.896 C31.642 79.335 44.178 72.396 59.642 72.396 C75.105 72.396
				87.642 79.336 87.642 87.896 z"
			 style="opacity:0.1"/>
		<g>
			<linearGradient id="XMLID_5_" gradientUnits="userSpaceOnUse" x1="62.3457"
				y1="83.543" x2="47.8533" y2="82.7663">
				<stop offset="0" style="stop-color:rgb(255,255,255)"/>
				<stop offset="0.2477" style="stop-color:rgb(212,212,212)"/>
				<stop offset="0.5974" style="stop-color:rgb(157,157,157)"/>
				<stop offset="0.8587" style="stop-color:rgb(123,123,123)"/>
				<stop offset="1" style="stop-color:rgb(110,110,110)"/>
			</linearGradient>
			<path
				d="M78.611 83.341 C78.611 91.083 69.657 97.356 58.609 97.356 C47.56 97.356 38.606 91.084
					38.606 83.341 C38.606 75.603 47.56 69.329 58.609 69.329 C69.657 69.329
					78.611 75.603 78.611 83.341 z"
				 style="fill:url(#XMLID_5_)"/>
			<path
				d="M37.833 83.341 C37.833 91.497 47.152 98.131 58.608 98.131 C70.064 98.131 79.384 91.497
					79.384 83.341 C79.384 75.189 70.064 68.557 58.608 68.557 C47.153 68.557
					37.833 75.188 37.833 83.341 zM39.378 83.341 C39.378 76.041 48.004 70.101
					58.609 70.101 C69.214 70.101 77.84 76.041 77.84 83.341 C77.84 90.645 69.214
					96.586 58.609 96.586 C48.004 96.586 39.378 90.645 39.378 83.341 z"
				 style="fill:rgb(80,80,80)"/>
			<linearGradient id="XMLID_6_" gradientUnits="userSpaceOnUse" x1="71.5859"
				y1="98.0664" x2="52.4341" y2="69.0799">
				<stop offset="0" style="stop-color:rgb(255,255,255)"/>
				<stop offset="1" style="stop-color:rgb(117,117,117)"/>
			</linearGradient>
			<path a:adobe-blending-mode="multiply"
				d="M78.611 78.424 C78.611 86.166 69.657 92.441 58.609 92.441 C47.56 92.441 38.606 86.167
					38.606 78.424 C38.606 70.687 47.56 64.41 58.609 64.41 C69.657 64.41 78.611
					70.687 78.611 78.424 z"
				 style="fill:url(#XMLID_6_)"/>
			<linearGradient id="XMLID_7_" gradientUnits="userSpaceOnUse" x1="59.2827"
				y1="45.5034" x2="57.2125" y2="87.1746">
				<stop offset="0" style="stop-color:rgb(209,209,209)"/>
				<stop offset="1" style="stop-color:rgb(107,107,107)"/>
			</linearGradient>
			<path
				d="M95.361 59.079 C95.361 76.084 78.905 89.867 58.608 89.867 C38.311 89.867 21.856 76.084
					21.856 59.079 C21.856 42.074 38.311 28.29 58.608 28.29 C78.905 28.29
					95.361 42.074 95.361 59.079 z"
				 style="fill:url(#XMLID_7_)"/>
			<path
				d="M21.084 59.079 C21.084 76.481 37.917 90.64 58.608 90.64 C79.299 90.64 96.132 76.482
					96.132 59.079 C96.132 41.676 79.299 27.517 58.608 27.517 C37.917 27.518
					21.084 41.676 21.084 59.079 zM22.628 59.079 C22.628 42.527 38.768 29.062 58.608
					29.062 C78.448 29.062 94.587 42.527 94.587 59.079 C94.587 75.629 78.447
					89.098 58.608 89.098 C38.768 89.098 22.628 75.629 22.628 59.079 z"
				 style="fill:rgb(80,80,80)"/>
			<path
				d="M74.137 66.207 C74.137 72.852 67.186 78.24 58.609 78.24 C50.033 78.24 43.081 72.851
					43.081 66.207 C43.081 59.559 50.033 54.171 58.609 54.171 C67.186 54.171
					74.137 59.559 74.137 66.207 z"
				 style="fill:rgb(255,255,255);stroke:rgb(0,0,0)"/>
			<linearGradient id="XMLID_8_" gradientUnits="userSpaceOnUse" x1="58.6079"
				y1="77.6777" x2="58.6079" y2="30.312">
				<stop offset="0" style="stop-color:rgb(255,255,255)"/>
				<stop offset="1" style="stop-color:rgb(82,82,82)"/>
			</linearGradient>
			<path
				d="M89.925 57.48 C89.925 71.969 75.904 83.716 58.609 83.716 C41.313 83.716 27.292 71.969
					27.292 57.48 C27.292 42.99 41.313 31.245 58.609 31.245 C75.904 31.245
					89.925 42.991 89.925 57.48 z"
				 style="fill:url(#XMLID_8_)"/>
			<linearGradient id="XMLID_9_" gradientUnits="userSpaceOnUse" x1="58.6084"
				y1="57.4546" x2="59.6438" y2="111.03">
				<stop offset="0" style="stop-color:rgb(255,255,255)"/>
				<stop offset="1" style="stop-color:rgb(117,117,117)"/>
			</linearGradient>
			<path
				d="M26.519 57.48 C26.519 72.373 40.914 84.489 58.608 84.489 C76.302 84.489 90.698 72.373
					90.698 57.48 C90.698 42.588 76.302 30.473 58.608 30.473 C40.914 30.473
					26.519 42.588 26.519 57.48 zM28.063 57.48 C28.063 43.439 41.765 32.017 58.608
					32.017 C75.451 32.017 89.153 43.439 89.153 57.48 C89.153 71.52 75.451 82.944
					58.608 82.944 C41.765 82.944 28.063 71.521 28.063 57.48 z"
				 style="fill:url(#XMLID_9_)"/>
			<g>
				<linearGradient id="XMLID_10_" gradientUnits="userSpaceOnUse" x1="58.0469"
					y1="46.8149" x2="59.0763" y2="72.0411">
					<stop offset="0" style="stop-color:rgb(255,255,255)"/>
					<stop offset="1" style="stop-color:rgb(117,117,117)"/>
				</linearGradient>
				<path
					d="M74.338 60.575 C74.338 67.853 67.295 73.752 58.609 73.752 C49.921 73.752 42.88 67.853
						42.88 60.575 C42.88 53.299 49.922 47.398 58.609 47.398 C67.295 47.397
						74.338 53.298 74.338 60.575 z"
					 style="fill:url(#XMLID_10_)"/>
				<linearGradient id="XMLID_11_" gradientUnits="userSpaceOnUse" x1="55.5459"
					y1="45.5161" x2="55.0285" y2="62.5987">
					<stop offset="13.2184%" style="stop-color:rgb(255,255,255)"/>
					<stop offset="100%" style="stop-opacity:0;stop-color:rgb(255,255,255)"/>
				</linearGradient>
				<path a:adobe-blending-mode="screen"
					d="M64.129 56.928 C64.129 60.502 60.131 63.399 55.201 63.399 C50.268 63.399 46.271 60.503
						46.271 56.928 C46.271 53.354 50.269 50.457 55.201 50.457 C60.131 50.457
						64.129 53.354 64.129 56.928 z"
					 style="fill:url(#XMLID_11_)"/>
			</g>
		</g>
		<g>
			<radialGradient id="XMLID_12_" cx="102.131" cy="117.697" r="34.7364"
				fx="102.131" fy="117.697" gradientUnits="userSpaceOnUse">
				<stop offset="0" style="stop-color:rgb(0,0,0)"/>
				<stop offset="1" style="stop-color:rgb(0,0,0)"/>
				<a:midPointStop offset="0" style="stop-color:#000000"/>
				<a:midPointStop offset="0.5" style="stop-color:#000000"/>
				<a:midPointStop offset="1" style="stop-color:#000000"/>
			</radialGradient>
			<path
				d="M78.855 90.424 L78.855 126.178 L80.648 126.178 L114.287 92.539 L114.287 90.424 z"
				
				 style="opacity:0.1;fill:url(#XMLID_12_)"/>
			<path d="M81.201 126.396 L114.828 92.769 L81.201 92.769 z"
				 style="fill:rgb(255,255,255)"/>
			<linearGradient id="XMLID_13_" gradientUnits="userSpaceOnUse" x1="97.6807"
				y1="97.6289" x2="88.7524" y2="135.242">
				<stop offset="0" style="stop-color:rgb(255,255,255)"/>
				<stop offset="1" style="stop-color:rgb(204,204,204)"/>
				<a:midPointStop offset="0" style="stop-color:#FFFFFF"/>
				<a:midPointStop offset="0.5" style="stop-color:#FFFFFF"/>
				<a:midPointStop offset="1" style="stop-color:#CCCCCC"/>
			</linearGradient>
			<path d="M83.529 124.504 L113.123 94.912 L83.529 94.912 z"
				 style="fill:url(#XMLID_13_)"/>
			<linearGradient id="XMLID_14_" gradientUnits="userSpaceOnUse" x1="75.9727"
				y1="87.541" x2="89.7684" y2="101.337">
				<stop offset="0" style="stop-color:rgb(178,178,178)"/>
				<stop offset="1" style="stop-color:rgb(130,130,130)"/>
				<a:midPointStop offset="0" style="stop-color:#B2B2B2"/>
				<a:midPointStop offset="0.5" style="stop-color:#B2B2B2"/>
				<a:midPointStop offset="1" style="stop-color:#828282"/>
			</linearGradient>
			<path
				d="M81.201 92.27 C80.924 92.27 80.701 92.493 80.701 92.77 L80.701 126.397 C80.701 126.6
					80.822 126.782 81.01 126.86 C81.196 126.936 81.412 126.893 81.555 126.751
					L115.182 93.124 C115.325 92.979 115.368 92.765 115.291 92.579 C115.213 92.391
					115.031 92.27 114.828 92.27 zM113.621 93.27 C112.041 94.848 83.279 123.61
					81.701 125.19 C81.701 122.981 81.701 94.204 81.701 93.27 C82.635 93.27
					111.412 93.27 113.621 93.27 z"
				 style="fill:url(#XMLID_14_)"/>
		</g>
		<g>
			<path
				d="M6.563 12.1 L8.251 11.928 C8.353 12.492 8.559 12.907 8.869 13.172 C9.179 13.437 9.598
					13.569 10.126 13.569 C10.685 13.569 11.105 13.451 11.389 13.215 C11.672
					12.98 11.814 12.704 11.814 12.389 C11.814 12.186 11.754 12.014 11.636 11.872
					C11.518 11.73 11.31 11.606 11.014 11.501 C10.811 11.431 10.35 11.306 9.63
					11.126 C8.703 10.896 8.053 10.613 7.68 10.276 C7.155 9.803 6.892 9.226 6.892
					8.545 C6.892 8.107 7.016 7.697 7.263 7.316 C7.51 6.936 7.866 6.646 8.331
					6.446 C8.796 6.246 9.358 6.147 10.016 6.147 C11.091 6.147 11.9 6.385 12.443
					6.862 C12.986 7.339 13.271 7.976 13.298 8.772 L11.564 8.835 C11.49 8.39
					11.332 8.07 11.089 7.876 C10.846 7.682 10.483 7.584 9.998 7.584 C9.497 7.584
					9.105 7.688 8.822 7.896 C8.639 8.029 8.548 8.208 8.548 8.432 C8.548 8.636
					8.634 8.81 8.805 8.955 C9.023 9.14 9.553 9.331 10.394 9.53 C11.235 9.728
					11.857 9.934 12.26 10.148 C12.663 10.361 12.979 10.653 13.206 11.022 C13.434
					11.392 13.548 11.849 13.548 12.393 C13.548 12.886 13.411 13.348 13.138 13.778
					C12.865 14.209 12.478 14.528 11.978 14.738 C11.478 14.948 10.855 15.052
					10.109 15.052 C9.023 15.052 8.189 14.801 7.607 14.298 C7.025 13.795 6.677
					13.063 6.563 12.1 z"
				 style="fill:rgb(255,255,255)"/>
			<path
				d="M14.661 10.652 C14.661 9.775 14.792 9.039 15.054 8.443 C15.249 8.005 15.515 7.611
					15.853 7.262 C16.19 6.913 16.561 6.655 16.963 6.487 C17.498 6.26 18.114 6.146
					18.814 6.146 C20.079 6.146 21.091 6.54 21.851 7.327 C22.611 8.114 22.99
					9.209 22.99 10.611 C22.99 12.002 22.613 13.09 21.86 13.875 C21.107 14.66 20.099
					15.053 18.838 15.053 C17.561 15.053 16.546 14.662 15.793 13.881 C15.04
					13.1 14.661 12.023 14.661 10.652 zM16.442 10.594 C16.442 11.57 16.667 12.31
					17.118 12.813 C17.568 13.316 18.14 13.568 18.834 13.568 C19.528 13.568 20.096
					13.318 20.541 12.818 C20.985 12.318 21.208 11.569 21.208 10.569 C21.208
					9.582 20.991 8.844 20.559 8.359 C20.127 7.874 19.551 7.63 18.834 7.63 C18.117
					7.63 17.539 7.876 17.101 8.368 C16.662 8.86 16.442 9.603 16.442 10.594 z"
				 style="fill:rgb(255,255,255)"/>
			<path
				d="M24.354 6.303 L26.088 6.303 L26.088 10.963 C26.088 11.702 26.109 12.182 26.152 12.401
					C26.226 12.754 26.402 13.036 26.681 13.249 C26.96 13.462 27.341 13.569
					27.825 13.569 C28.316 13.569 28.686 13.468 28.936 13.267 C29.185 13.065 29.335
					12.818 29.386 12.524 C29.437 12.231 29.462 11.744 29.462 11.063 L29.462
					6.303 L31.196 6.303 L31.196 10.822 C31.196 11.855 31.149 12.585 31.055 13.011
					C30.961 13.437 30.788 13.797 30.537 14.091 C30.286 14.385 29.949 14.618
					29.527 14.793 C29.106 14.967 28.555 15.054 27.876 15.054 C27.056 15.054 26.435
					14.959 26.011 14.769 C25.587 14.579 25.253 14.333 25.007 14.03 C24.761
					13.727 24.6 13.409 24.522 13.076 C24.409 12.583 24.352 11.855 24.352 10.892
					L24.352 6.303 z"
				 style="fill:rgb(255,255,255)"/>
			<path
				d="M33.021 14.896 L33.021 6.303 L34.707 6.303 L38.24 12.059 L38.24 6.303 L39.849 6.303
					L39.849 14.897 L38.11 14.897 L34.631 9.257 L34.631 14.897 L33.021 14.897 z"
				 style="fill:rgb(255,255,255)"/>
			<path
				d="M41.687 6.303 L44.858 6.303 C45.573 6.303 46.118 6.358 46.493 6.467 C46.997 6.615
					47.429 6.88 47.788 7.259 C48.147 7.638 48.421 8.102 48.609 8.651 C48.797 9.2
					48.89 9.878 48.89 10.682 C48.89 11.39 48.802 11.999 48.626 12.511 C48.411
					13.136 48.105 13.642 47.706 14.029 C47.405 14.322 46.998 14.551 46.486 14.715
					C46.103 14.836 45.591 14.897 44.951 14.897 L41.686 14.897 L41.686 6.303
					zM43.421 7.756 L43.421 13.444 L44.721 13.444 C45.207 13.444 45.558 13.417
					45.774 13.362 C46.056 13.292 46.291 13.173 46.477 13.005 C46.663 12.837 46.815
					12.561 46.933 12.176 C47.051 11.792 47.11 11.267 47.11 10.603 C47.11 9.939
					47.051 9.43 46.933 9.074 C46.816 8.719 46.651 8.442 46.439 8.242 C46.227
					8.043 45.959 7.908 45.633 7.838 C45.39 7.783 44.913 7.756 44.204 7.756 z"
				 style="fill:rgb(255,255,255)"/>
		</g>
	</g>
</svg>
