<?xml version="1.0" encoding="UTF-8" standalone="no"?>
<!-- Created with Inkscape (http://www.inkscape.org/) -->
<svg
   xmlns:a="http://ns.adobe.com/AdobeSVGViewerExtensions/3.0/"
   xmlns:dc="http://purl.org/dc/elements/1.1/"
   xmlns:cc="http://web.resource.org/cc/"
   xmlns:rdf="http://www.w3.org/1999/02/22-rdf-syntax-ns#"
   xmlns:svg="http://www.w3.org/2000/svg"
   xmlns="http://www.w3.org/2000/svg"
   xmlns:xlink="http://www.w3.org/1999/xlink"
   xmlns:sodipodi="http://inkscape.sourceforge.net/DTD/sodipodi-0.dtd"
   xmlns:inkscape="http://www.inkscape.org/namespaces/inkscape"
   id="svg1"
   sodipodi:version="0.32"
   inkscape:version="0.42"
   width="128.00000pt"
   height="128.00000pt"
   sodipodi:docbase="/lhome/eric/Fmgr"
   sodipodi:docname="b_exec.svg">
  <defs
     id="defs3">
    <radialGradient
       gradientUnits="userSpaceOnUse"
       fy="-11.376000"
       fx="-11.043500"
       r="103.43050"
       cy="-11.376000"
       cx="-11.043500"
       id="XMLID_7_"
       xlink:href="#XMLID_4_">
			<stop
   id="stop2541"
   style="stop-color:#FFFFFF"
   offset="0" />

			<stop
   id="stop2543"
   style="stop-color:#9f9f9f;stop-opacity:1.0000000;"
   offset="1.0000000" />

			<a:midPointStop
   style="stop-color:#FFFFFF"
   offset="0" />

			<a:midPointStop
   style="stop-color:#FFFFFF"
   offset="0.5" />

			<a:midPointStop
   style="stop-color:#8BCEFF"
   offset="1" />

		</radialGradient>
    <linearGradient
       inkscape:collect="always"
       xlink:href="#XMLID_7_"
       id="linearGradient4044"
       x1="10.019000"
       y1="45.782501"
       x2="96.111000"
       y2="45.782501"
       gradientUnits="userSpaceOnUse" />
    <linearGradient
       y2="145.0817"
       x2="63.9995"
       y1="59.0845"
       x1="63.9995"
       gradientUnits="userSpaceOnUse"
       id="XMLID_6_">
			<stop
   id="stop2534"
   style="stop-color:#383838;stop-opacity:1.0000000;"
   offset="0.0000000" />

			<stop
   id="stop2536"
   style="stop-color:#4e4e4e;stop-opacity:1.0000000;"
   offset="1.0000000" />

			<a:midPointStop
   style="stop-color:#003DC7"
   offset="0" />

			<a:midPointStop
   style="stop-color:#003DC7"
   offset="0.5" />

			<a:midPointStop
   style="stop-color:#4CA4FF"
   offset="1" />

		</linearGradient>
    <radialGradient
       xlink:href="#XMLID_4_"
       gradientUnits="userSpaceOnUse"
       fy="120.58790"
       fx="69.948196"
       r="95.497902"
       cy="120.58790"
       cx="69.948196"
       id="XMLID_5_"
       spreadMethod="pad">
			<stop
   id="stop2527"
   style="stop-color:#FFFFFF"
   offset="0" />

			<stop
   id="stop2529"
   style="stop-color:#949494;stop-opacity:1.0000000;"
   offset="1.0000000" />

			<a:midPointStop
   style="stop-color:#FFFFFF"
   offset="0" />

			<a:midPointStop
   style="stop-color:#FFFFFF"
   offset="0.5" />

			<a:midPointStop
   style="stop-color:#0095FF"
   offset="1" />

		</radialGradient>
    <radialGradient
       gradientUnits="userSpaceOnUse"
       fy="122.6865"
       fx="80.6709"
       r="116.7806"
       cy="122.6865"
       cx="80.6709"
       id="XMLID_4_">
			<stop
   id="stop2520"
   style="stop-color:#cfcfcf;stop-opacity:1.0000000;"
   offset="0.0000000" />

			<stop
   id="stop2522"
   style="stop-color:#b0b0b0;stop-opacity:1.0000000;"
   offset="1.0000000" />

			<a:midPointStop
   style="stop-color:#CAFFFF"
   offset="0" />

			<a:midPointStop
   style="stop-color:#CAFFFF"
   offset="0.5" />

			<a:midPointStop
   style="stop-color:#0090FF"
   offset="1" />

		</radialGradient>
    <radialGradient
       inkscape:collect="always"
       xlink:href="#XMLID_4_"
       id="radialGradient4036"
       gradientUnits="userSpaceOnUse"
       cx="80.6709"
       cy="122.6865"
       fx="80.6709"
       fy="122.6865"
       r="116.7806" />
    <radialGradient
       gradientUnits="userSpaceOnUse"
       fy="136.7842"
       fx="73.4268"
       r="53.1517"
       cy="136.7842"
       cx="73.4268"
       id="XMLID_3_">
			<stop
   id="stop2513"
   style="stop-color:#FFFFFF"
   offset="0" />

			<stop
   id="stop2515"
   style="stop-color:#494949;stop-opacity:1.0000000;"
   offset="1.0000000" />

			<a:midPointStop
   style="stop-color:#FFFFFF"
   offset="0" />

			<a:midPointStop
   style="stop-color:#FFFFFF"
   offset="0.5" />

			<a:midPointStop
   style="stop-color:#006ACA"
   offset="1" />

		</radialGradient>
    <linearGradient
       xlink:href="#XMLID_1_"
       y2="58.083199"
       x2="68.250999"
       y1="-3.4180000"
       x1="68.250999"
       gradientUnits="userSpaceOnUse"
       id="XMLID_2_"
       spreadMethod="pad">
			<stop
   id="stop2506"
   style="stop-color:#404040;stop-opacity:1.0000000;"
   offset="0.0000000" />

			<stop
   id="stop2508"
   style="stop-color:#646464;stop-opacity:1.0000000;"
   offset="1.0000000" />

			<a:midPointStop
   style="stop-color:#000051"
   offset="0" />

			<a:midPointStop
   style="stop-color:#000051"
   offset="0.5" />

			<a:midPointStop
   style="stop-color:#58B1FF"
   offset="1" />

		</linearGradient>
    <linearGradient
       y2="71.5838"
       x2="63.271"
       y1="34.5859"
       x1="63.271"
       gradientUnits="userSpaceOnUse"
       id="XMLID_1_">
			<stop
   id="stop2497"
   style="stop-color:#39393a;stop-opacity:1.0000000;"
   offset="0.0000000" />

			<stop
   id="stop2499"
   style="stop-color:#9b9b9b;stop-opacity:1.0000000;"
   offset="1.0000000" />

			<a:midPointStop
   style="stop-color:#003DC7"
   offset="0" />

			<a:midPointStop
   style="stop-color:#003DC7"
   offset="0.5" />

			<a:midPointStop
   style="stop-color:#4CA4FF"
   offset="1" />

		</linearGradient>
    <linearGradient
       inkscape:collect="always"
       xlink:href="#XMLID_1_"
       id="linearGradient4042"
       gradientUnits="userSpaceOnUse"
       x1="63.271"
       y1="34.5859"
       x2="63.271"
       y2="71.5838" />
    <linearGradient
       id="linearGradient1416">
      <stop
         style="stop-color:#000000;stop-opacity:0.00000000;"
         offset="0.00000000"
         id="stop1417" />
      <stop
         style="stop-color:#000000;stop-opacity:0.00000000;"
         offset="0.50000000"
         id="stop1419" />
      <stop
         style="stop-color:#000000;stop-opacity:1.0000000;"
         offset="1.0000000"
         id="stop1418" />
    </linearGradient>
    <linearGradient
       id="linearGradient1397">
      <stop
         style="stop-color:#000000;stop-opacity:0.53725493;"
         offset="0.00000000"
         id="stop1398" />
      <stop
         style="stop-color:#ffffff;stop-opacity:0.26666668;"
         offset="0.50000000"
         id="stop1400" />
      <stop
         style="stop-color:#000000;stop-opacity:0.13333334;"
         offset="0.75000000"
         id="stop1401" />
      <stop
         style="stop-color:#000000;stop-opacity:0.00000000;"
         offset="1.0000000"
         id="stop1399" />
    </linearGradient>
    <linearGradient
       id="linearGradient896">
      <stop
         style="stop-color:#e2d9a9;stop-opacity:1.0000000;"
         offset="0.00000000"
         id="stop897" />
      <stop
         style="stop-color:#857c4d;stop-opacity:1.0000000;"
         offset="1.0000000"
         id="stop898" />
    </linearGradient>
    <linearGradient
       id="linearGradient893">
      <stop
         style="stop-color:#000000;stop-opacity:0.27083334;"
         offset="0.00000000"
         id="stop894" />
      <stop
         style="stop-color:#000000;stop-opacity:0.00000000;"
         offset="1.0000000"
         id="stop895" />
    </linearGradient>
    <linearGradient
       id="linearGradient841">
      <stop
         style="stop-color:#ffffff;stop-opacity:1.0000000;"
         offset="0.00000000"
         id="stop842" />
      <stop
         style="stop-color:#dadada;stop-opacity:1.0000000;"
         offset="0.50379843"
         id="stop844" />
      <stop
         style="stop-color:#bdbdbd;stop-opacity:1.0000000;"
         offset="0.51379842"
         id="stop845" />
      <stop
         style="stop-color:#dedede;stop-opacity:1.0000000;"
         offset="0.64667326"
         id="stop846" />
      <stop
         style="stop-color:#ffffff;stop-opacity:1.0000000;"
         offset="1.0000000"
         id="stop843" />
    </linearGradient>
    <linearGradient
       id="linearGradient836">
      <stop
         style="stop-color:#ffffff;stop-opacity:0.00000000;"
         offset="0.00000000"
         id="stop837" />
      <stop
         style="stop-color:#fff;stop-opacity:1;"
         offset="1"
         id="stop838" />
    </linearGradient>
    <linearGradient
       id="linearGradient832">
      <stop
         style="stop-color:#323232;stop-opacity:1.0000000;"
         offset="0.00000000"
         id="stop833" />
      <stop
         style="stop-color:#000000;stop-opacity:1.0000000;"
         offset="0.50000000"
         id="stop1430" />
      <stop
         style="stop-color:#ffffff;stop-opacity:1.0000000;"
         offset="1.0000000"
         id="stop834" />
    </linearGradient>
    <linearGradient
       xlink:href="#linearGradient832"
       id="linearGradient835"
       x1="0.19090909"
       y1="0.68421054"
       x2="1.1454545"
       y2="-0.17105263" />
    <linearGradient
       xlink:href="#linearGradient836"
       id="linearGradient839"
       x1="0.47235259"
       y1="0.39059740"
       x2="0.47235259"
       y2="0.013744113" />
    <radialGradient
       xlink:href="#linearGradient1397"
       id="radialGradient840"
       cx="0.50000000"
       cy="0.50000000"
       r="0.50000000"
       fx="0.51298690"
       fy="0.092105433" />
    <linearGradient
       xlink:href="#linearGradient832"
       id="linearGradient860"
       x1="0.21710530"
       y1="0.74342090"
       x2="0.89436638"
       y2="-0.33333325" />
    <linearGradient
       xlink:href="#linearGradient836"
       id="linearGradient863"
       x1="0.52739727"
       y1="0.48611110"
       x2="0.65068495"
       y2="-0.041666668" />
    <linearGradient
       xlink:href="#linearGradient836"
       id="linearGradient891"
       x1="0.12500000"
       y1="1.0986842"
       x2="0.82894737"
       y2="0.13815789" />
    <linearGradient
       xlink:href="#linearGradient896"
       id="linearGradient892"
       x1="-0.11404288"
       y1="0.24721514"
       x2="-0.061766334"
       y2="2.5462053" />
    <linearGradient
       xlink:href="#linearGradient836"
       id="linearGradient900"
       x1="0.37142858"
       y1="0.63888890"
       x2="0.11428571"
       y2="1.0416666" />
    <linearGradient
       xlink:href="#linearGradient893"
       id="linearGradient905"
       x1="1.3074018"
       y1="1.7768639"
       x2="1.3074018"
       y2="0.11690380" />
    <linearGradient
       xlink:href="#linearGradient893"
       id="linearGradient906"
       x1="-0.42276084"
       y1="1.8603847"
       x2="-0.42276084"
       y2="0.20042460" />
    <linearGradient
       xlink:href="#linearGradient832"
       id="linearGradient908"
       x1="0.50352114"
       y1="0.44615385"
       x2="0.21478873"
       y2="1.1615385" />
    <linearGradient
       xlink:href="#linearGradient836"
       id="linearGradient910"
       x1="0.45422536"
       y1="0.50000000"
       x2="0.69594592"
       y2="-0.078947365" />
    <linearGradient
       xlink:href="#linearGradient896"
       id="linearGradient911"
       x1="1.1710526"
       y1="0.16447368"
       x2="-2.2763157"
       y2="1.5986842" />
    <linearGradient
       xlink:href="#linearGradient832"
       id="linearGradient912"
       x1="0.67222220"
       y1="0.30167598"
       x2="0.25000000"
       y2="0.44692737" />
    <radialGradient
       xlink:href="#linearGradient841"
       id="radialGradient1402"
       cx="0.48684204"
       cy="0.44078955"
       r="0.76976496"
       fx="0.53289479"
       fy="0.013157940" />
    <radialGradient
       xlink:href="#linearGradient1416"
       id="radialGradient1415"
       cx="0.48684210"
       cy="0.46052632"
       r="0.76976496"
       fx="0.52631575"
       fy="0.71710521" />
  </defs>
  <sodipodi:namedview
     id="base"
     pagecolor="#ffffff"
     bordercolor="#666666"
     borderopacity="1.0"
     inkscape:pageopacity="0.0"
     inkscape:pageshadow="2"
     inkscape:zoom="2.4559706"
     inkscape:cx="72.909285"
     inkscape:cy="91.686304"
     inkscape:window-width="772"
     inkscape:window-height="518"
     inkscape:window-x="277"
     inkscape:window-y="484"
     inkscape:current-layer="svg1" />
  <path
     sodipodi:type="arc"
     style="fill:url(#radialGradient840);fill-opacity:0.75000000;fill-rule:evenodd;stroke-width:3.0812783;stroke-opacity:0.37190083;stroke:none;stroke-dasharray:none;"
     id="path1395"
     sodipodi:cx="100.04990"
     sodipodi:cy="483.73325"
     sodipodi:rx="27.351770"
     sodipodi:ry="27.351770"
     d="M 127.40167 483.73325 A 27.351770 27.351770 0 1 0 72.698126,483.73325 A 27.351770 27.351770 0 1 0 127.40167 483.73325 z"
     transform="matrix(2.730582,0.000000,0.000000,1.488369,-191.0905,-608.7596)" />
  <path
     sodipodi:type="arc"
     style="fill:url(#radialGradient1402);fill-opacity:0.75000000;fill-rule:evenodd;stroke-width:3.0812783;stroke-opacity:0.37190083;stroke:none;stroke-dasharray:none;"
     id="path855"
     sodipodi:cx="100.04990"
     sodipodi:cy="483.73325"
     sodipodi:rx="27.351770"
     sodipodi:ry="27.351770"
     d="M 127.40167 483.73325 A 27.351770 27.351770 0 1 0 72.698126,483.73325 A 27.351770 27.351770 0 1 0 127.40167 483.73325 z"
     transform="matrix(1.736345,0.000000,0.000000,1.736345,-92.18625,-774.3955)" />
  <path
     sodipodi:type="arc"
     style="fill:url(#radialGradient1415);fill-opacity:0.75000000;fill-rule:evenodd;stroke-width:3.0812783;stroke-opacity:0.37190083;stroke:none;stroke-dasharray:none;"
     id="path1414"
     sodipodi:cx="100.04990"
     sodipodi:cy="483.73325"
     sodipodi:rx="27.351770"
     sodipodi:ry="27.351770"
     d="M 127.40167 483.73325 A 27.351770 27.351770 0 1 0 72.698126,483.73325 A 27.351770 27.351770 0 1 0 127.40167 483.73325 z"
     transform="matrix(1.736345,0.000000,0.000000,1.736345,-91.90522,-774.4678)" />
  <path
     sodipodi:type="arc"
     style="fill:url(#linearGradient839);fill-opacity:0.75000000;fill-rule:evenodd;stroke-width:1.0000000pt;stroke-opacity:0.37190083;"
     id="path856"
     sodipodi:cx="155.47322"
     sodipodi:cy="527.64008"
     sodipodi:rx="29.511122"
     sodipodi:ry="29.511122"
     d="M 184.98434 527.64008 A 29.511122 29.511122 0 1 0 125.96210,527.64008 A 29.511122 29.511122 0 1 0 184.98434 527.64008 z"
     transform="matrix(1.291670,0.000000,0.000000,1.524596,-118.6605,-740.1552)" />
  <path
     style="fill:url(#linearGradient863);fill-opacity:0.75000000;fill-rule:evenodd;stroke:none;stroke-width:1.0000000pt;"
     d="M 361.33127,396.63946 C 361.33127,460.21074 309.73720,511.80481 246.16592,511.80481 C 182.59465,511.80481 131.00057,460.21074 131.00057,396.63946 C 131.00057,333.06819 182.59465,281.47411 246.16592,281.47411 C 309.73720,281.47411 361.33127,333.06819 361.33127,396.63946 z "
     id="path862"
     sodipodi:insensitive="true" />
  <metadata
     id="metadata55">
    <rdf:RDF>
      <cc:Work
         rdf:about="">
        <dc:title>Etiquette Icons</dc:title>
        <dc:description />
        <dc:subject>
          <rdf:Bag>
            <rdf:li>computer</rdf:li>
            <rdf:li>icons</rdf:li>
            <rdf:li>actions</rdf:li>
          </rdf:Bag>
        </dc:subject>
        <dc:publisher>
          <cc:Agent
             rdf:about="">
            <dc:title />
          </cc:Agent>
        </dc:publisher>
        <dc:creator>
          <cc:Agent
             rdf:about="">
            <dc:title>Andy Fitzsimon</dc:title>
          </cc:Agent>
        </dc:creator>
        <dc:rights>
          <cc:Agent
             rdf:about="">
            <dc:title>Andy Fitzsimon</dc:title>
          </cc:Agent>
        </dc:rights>
        <dc:date />
        <dc:format>image/svg+xml</dc:format>
        <dc:type
           rdf:resource="http://purl.org/dc/dcmitype/StillImage" />
        <cc:license
           rdf:resource="http://web.resource.org/cc/PublicDomain">
          <dc:date />
        </cc:license>
        <dc:language>en</dc:language>
      </cc:Work>
      <cc:License
         rdf:about="http://web.resource.org/cc/PublicDomain">
        <cc:permits
           rdf:resource="http://web.resource.org/cc/Reproduction" />
        <cc:permits
           rdf:resource="http://web.resource.org/cc/Distribution" />
        <cc:permits
           rdf:resource="http://web.resource.org/cc/DerivativeWorks" />
      </cc:License>
    </rdf:RDF>
  </metadata>
  <g
     id="g4046"
     transform="matrix(0.541933,0.000000,0.000000,0.484674,47.15768,34.11001)">
    <path
       d="M 48.859000,36.605000 C 43.103000,37.617000 38.447000,40.458000 35.394000,44.820000 L 35.298000,44.957000 L 35.306000,45.127000 C 35.423000,48.284000 36.152000,51.535000 37.472000,54.791000 L 37.523000,54.913000 C 38.033000,56.154000 38.634000,57.404000 39.313000,58.630000 C 39.314000,58.631000 39.392000,58.770000 39.392000,58.770000 C 39.429000,58.834000 40.423000,60.504000 40.423000,60.504000 C 40.466000,60.570000 40.517000,60.650000 40.517000,60.650000 L 41.712000,62.420000 C 41.776000,62.506000 41.829000,62.578000 41.829000,62.578000 L 42.979000,64.089000 L 43.250000,64.428000 C 44.139000,65.523000 45.101000,66.594000 46.107000,67.609000 C 46.107000,67.611000 46.484000,67.982000 46.484000,67.982000 C 46.484000,67.984000 47.773000,69.205000 47.773000,69.205000 L 48.107000,69.514000 C 48.108000,69.514000 49.768000,70.930000 49.768000,70.930000 L 50.135000,71.219000 C 50.136000,71.219000 51.563000,72.315000 51.563000,72.315000 L 52.064000,72.680000 C 52.065000,72.680000 53.929000,73.963000 53.929000,73.963000 L 56.066000,75.262000 C 56.102000,75.283000 56.560000,75.547000 56.560000,75.547000 L 58.693000,76.680000 L 58.964000,76.811000 C 58.965000,76.811000 60.934000,77.715000 60.934000,77.715000 L 61.403000,77.918000 C 61.404000,77.918000 63.564000,78.762000 63.564000,78.762000 L 63.962000,78.901000 L 63.958000,78.899000 L 65.914000,79.534000 C 65.917000,79.534000 66.286000,79.643000 66.286000,79.643000 C 66.288000,79.645000 68.465000,80.207000 68.465000,80.207000 C 68.468000,80.207000 68.912000,80.305000 68.912000,80.305000 L 70.965000,80.703000 C 71.017000,80.713000 71.144000,80.734000 71.144000,80.734000 C 71.145000,80.734000 73.331000,81.019000 73.331000,81.019000 L 73.762000,81.060000 C 75.213000,81.191000 76.664000,81.236000 78.076000,81.191000 L 78.450000,81.179000 C 78.452000,81.179000 80.547000,81.025000 80.547000,81.025000 C 80.635000,81.015000 80.676000,81.009000 80.676000,81.009000 L 82.633000,80.720000 C 82.638000,80.718000 82.917000,80.669000 82.917000,80.669000 L 84.903000,80.218000 L 85.105000,80.159000 C 85.107000,80.159000 86.918000,79.587000 86.918000,79.587000 C 86.983000,79.567000 87.076000,79.536000 87.076000,79.536000 C 87.080000,79.534000 88.896000,78.786000 88.896000,78.786000 C 88.893000,78.786000 89.050000,78.714000 89.050000,78.714000 C 89.144000,78.669000 90.864000,77.773000 90.864000,77.773000 L 91.073000,77.664000 L 91.101000,77.445000 C 93.501000,65.890000 86.715000,51.879000 74.597000,43.368000 C 66.434000,37.631000 57.051000,35.166000 48.859000,36.605000 z M 49.032000,37.586000 C 56.965000,36.191000 66.076000,38.597000 74.029000,44.184000 C 84.255000,51.365000 90.591000,62.530000 90.591000,72.652000 C 90.591000,74.138000 90.432000,75.599000 90.151000,77.025000 C 89.827000,77.193000 88.722000,77.769000 88.722000,77.769000 C 88.622000,77.816000 88.486000,77.880000 88.486000,77.880000 C 88.484000,77.882000 86.741000,78.597000 86.741000,78.597000 C 86.674000,78.620000 86.589000,78.650000 86.589000,78.650000 C 86.587000,78.650000 84.845000,79.199000 84.845000,79.199000 L 84.633000,79.260000 L 82.732000,79.692000 L 82.454000,79.741000 C 82.458000,79.741000 80.563000,80.020000 80.563000,80.020000 C 80.501000,80.028000 80.450000,80.036000 80.450000,80.036000 C 80.443000,80.036000 78.412000,80.184000 78.412000,80.184000 L 78.048000,80.196000 C 76.677000,80.241000 75.265000,80.196000 73.854000,80.069000 C 73.852000,80.069000 73.436000,80.030000 73.436000,80.030000 L 71.307000,79.753000 L 71.130000,79.722000 L 69.127000,79.333000 C 69.124000,79.331000 68.691000,79.237000 68.691000,79.237000 L 66.568000,78.688000 L 66.200000,78.579000 L 64.292000,77.960000 L 63.903000,77.825000 L 61.791000,77.000000 L 61.332000,76.801000 L 59.404000,75.916000 L 59.138000,75.787000 C 59.137000,75.787000 57.050000,74.676000 57.050000,74.676000 C 57.048000,74.676000 56.603000,74.422000 56.603000,74.422000 C 56.566000,74.401000 54.474000,73.127000 54.474000,73.127000 L 52.648000,71.871000 L 52.156000,71.514000 L 50.759000,70.442000 L 50.399000,70.159000 L 48.774000,68.770000 L 48.448000,68.471000 L 47.187000,67.274000 L 46.818000,66.909000 C 45.834000,65.915000 44.894000,64.870000 44.026000,63.803000 L 43.760000,63.470000 L 42.638000,61.995000 C 42.576000,61.911000 42.522000,61.839000 42.522000,61.839000 L 41.356000,60.114000 C 41.315000,60.048000 41.265000,59.968000 41.265000,59.968000 L 40.297000,58.347000 C 40.258000,58.278000 40.184000,58.148000 40.184000,58.148000 C 39.526000,56.957000 38.940000,55.741000 38.446000,54.539000 L 38.397000,54.419000 C 37.143000,51.329000 36.457000,48.251000 36.325000,45.263000 C 39.223000,41.201000 43.605000,38.540000 49.032000,37.586000 z "
       id="path2501"
       style="fill:url(#linearGradient4042)" />
    <path
       d="M 120.21400,56.626000 L 114.65600,56.578000 L 112.29000,56.672000 L 112.76900,65.291000 L 120.21400,56.626000 z "
       id="path2503"
       style="fill:#ffffff" />
    <path
       d="M 82.396000,29.821000 C 65.970000,19.158000 46.313000,20.280000 38.492000,32.327000 C 36.008000,36.154000 35.021000,40.624000 35.351000,45.281000 C 42.568000,34.050000 59.906000,33.129000 74.437000,43.336000 C 86.959000,52.129000 93.355000,66.350000 90.700000,77.602000 C 93.643000,75.991000 96.139000,73.772000 97.973000,70.942000 C 105.79800,58.895000 98.821000,40.483000 82.396000,29.821000 z "
       id="path2510"
       style="fill:url(#XMLID_2_)" />
    <path
       d="M 19.898000,80.158000 L 16.646000,91.703000 L 27.834000,104.35500 L 38.738000,96.464000 L 52.050000,104.65000 L 52.191000,120.12900 L 66.416000,122.96100 L 74.622000,112.06600 L 75.108000,108.77500 L 82.638000,108.52100 L 90.286000,120.27700 L 100.90700,114.62300 L 110.29100,103.55500 L 110.28900,103.55300 L 110.46600,103.46300 L 105.75100,94.619000 L 111.24500,97.508000 L 121.50800,86.746000 L 123.07500,75.207000 L 112.89600,67.609000 L 112.76800,65.291000 L 120.03800,56.367000 L 114.87200,45.884000 L 106.36500,44.062000 L 98.769000,34.036000 L 102.41500,29.174000 L 93.756000,21.122000 L 87.224000,24.311000 L 76.286000,16.868000 L 76.134000,11.398000 L 64.283000,6.3850000 L 61.549000,13.526000 L 51.825000,11.702000 L 46.508000,5.0180000 L 34.691000,6.4970000 L 33.174000,18.738000 L 30.558000,19.907000 L 20.227000,14.740000 L 13.565000,22.476000 L 12.184000,35.243000 L 18.659000,41.153000 L 6.8160000,41.473000 L 4.8930000,54.197000 L 6.3090000,67.891000 L 19.337000,69.229000 L 23.201000,77.086000 L 19.898000,80.158000 z M 97.974000,70.941000 C 90.155000,82.992000 70.498000,84.115000 54.073000,73.451000 C 37.647000,62.787000 30.672000,44.377000 38.493000,32.326000 C 46.314000,20.279000 65.971000,19.157000 82.396000,29.820000 C 98.821000,40.483000 105.79800,58.895000 97.974000,70.941000 z "
       id="path2517"
       style="fill:url(#XMLID_3_)" />
    <path
       d="M 112.16300,67.471000 L 111.56400,56.702000 L 119.19400,56.401000 L 114.10800,46.080000 L 105.73200,44.286000 L 98.253000,34.414000 L 101.84300,29.627000 L 93.318000,21.698000 L 86.886000,24.841000 L 76.115000,17.511000 L 75.967000,12.126000 L 64.297000,7.1920000 L 61.606000,14.221000 L 52.034000,12.427000 L 46.799000,5.8440000 L 35.730000,7.3390000 L 40.814000,16.164000 L 31.091000,20.503000 L 20.921000,15.417000 L 14.788000,22.895000 L 24.212000,30.076000 L 21.667000,41.295000 L 8.3550000,42.041000 L 9.8520000,55.805000 L 23.613000,57.150000 L 30.494000,70.461000 L 20.771000,79.738000 L 32.587000,92.449000 L 44.105000,84.521000 L 58.166000,92.748000 L 58.314000,108.30500 L 74.469000,111.29700 L 76.563000,97.088000 L 90.474000,96.637000 L 98.551000,108.45300 L 109.77000,102.77100 L 102.59000,89.308000 L 109.91800,80.185000 L 120.68900,85.570000 L 122.18400,74.949000 L 112.16300,67.471000 z M 97.470000,70.752000 C 89.772000,82.613000 70.417000,83.719000 54.246000,73.221000 C 38.072000,62.723000 31.204000,44.596000 38.905000,32.733000 C 46.605000,20.870000 65.959000,19.764000 82.131000,30.263000 C 98.304000,40.764000 105.17100,58.889000 97.470000,70.752000 z "
       id="path2524"
       style="fill:url(#radialGradient4036)" />
    <path
       d="M 112.16300,67.471000 L 111.56400,56.702000 L 119.19400,56.401000 L 114.10800,46.080000 L 105.73200,44.286000 L 98.253000,34.414000 L 101.84300,29.627000 L 93.318000,21.698000 L 86.886000,24.841000 L 76.115000,17.511000 L 75.967000,12.126000 L 64.297000,7.1920000 L 61.606000,14.221000 L 52.034000,12.427000 L 46.799000,5.8440000 L 35.730000,7.3390000 L 40.814000,16.164000 L 31.091000,20.503000 L 20.921000,15.417000 L 14.788000,22.895000 L 24.212000,30.076000 L 21.667000,41.295000 L 8.3550000,42.041000 L 9.8520000,55.805000 L 23.613000,57.150000 L 30.494000,70.461000 L 20.771000,79.738000 L 32.587000,92.449000 L 44.105000,84.521000 L 58.166000,92.748000 L 58.314000,108.30500 L 74.469000,111.29700 L 76.563000,97.088000 L 90.474000,96.637000 L 98.551000,108.45300 L 109.77000,102.77100 L 102.59000,89.308000 L 109.91800,80.185000 L 120.68900,85.570000 L 122.18400,74.949000 L 112.16300,67.471000 z M 97.470000,70.752000 C 89.772000,82.613000 70.417000,83.719000 54.246000,73.221000 C 38.072000,62.723000 31.204000,44.596000 38.905000,32.733000 C 46.605000,20.870000 65.959000,19.764000 82.131000,30.263000 C 98.304000,40.764000 105.17100,58.889000 97.470000,70.752000 z "
       id="path2531"
       style="fill:url(#XMLID_5_)" />
    <path
       d="M 46.446000,4.5210000 L 34.242000,6.0490000 C 34.242000,6.0490000 32.779000,17.861000 32.713000,18.396000 C 32.333000,18.566000 30.895000,19.208000 30.570000,19.353000 C 30.164000,19.150000 20.101000,14.119000 20.101000,14.119000 L 13.083000,22.268000 L 11.657000,35.442000 C 11.657000,35.442000 16.054000,39.455000 17.405000,40.687000 C 15.418000,40.741000 6.3840000,40.984000 6.3840000,40.984000 L 4.3890000,54.185000 L 5.8540000,68.346000 C 5.8540000,68.346000 18.483000,69.645000 19.010000,69.698000 C 19.230000,70.145000 22.297000,76.384000 22.588000,76.973000 C 22.129000,77.401000 19.455000,79.887000 19.455000,79.887000 L 16.092000,91.830000 L 27.760000,105.02500 C 27.760000,105.02500 38.246000,97.439000 38.760000,97.066000 C 39.295000,97.394000 51.110000,104.65800 51.554000,104.93100 C 51.559000,105.46400 51.696000,120.54000 51.696000,120.54000 L 66.627000,123.51300 L 75.099000,112.26500 C 75.099000,112.26500 75.451000,109.89200 75.543000,109.25900 C 76.258000,109.23600 81.882000,109.04600 82.374000,109.02900 C 82.670000,109.48400 90.119000,120.93300 90.119000,120.93300 L 101.22800,115.01900 L 110.67400,103.87600 L 110.53900,103.98700 L 110.90800,103.22700 C 110.90800,103.22700 108.03100,97.829000 106.95800,95.817000 C 108.52500,96.641000 111.34800,98.124000 111.34800,98.124000 L 121.98300,86.974000 L 123.61200,74.982000 C 123.61200,74.982000 113.74600,67.619000 113.38400,67.349000 C 113.36500,67.005000 113.29500,65.745000 113.28000,65.456000 C 113.51600,65.165000 120.63100,56.433000 120.63100,56.433000 L 115.21600,45.445000 C 115.21600,45.445000 107.00200,43.685000 106.65400,43.611000 C 106.44300,43.333000 99.820000,34.590000 99.398000,34.033000 C 99.795000,33.502000 103.08700,29.113000 103.08700,29.113000 L 93.847000,20.521000 C 93.847000,20.521000 87.748000,23.499000 87.267000,23.734000 C 86.818000,23.428000 77.178000,16.868000 76.781000,16.598000 C 76.767000,16.134000 76.627000,11.062000 76.627000,11.062000 L 64.004000,5.7220000 C 64.004000,5.7220000 61.500000,12.261000 61.233000,12.957000 C 60.496000,12.819000 52.440000,11.308000 52.103000,11.244000 C 51.881000,10.965000 46.727000,4.4860000 46.727000,4.4860000 L 46.446000,4.5210000 z M 46.292000,5.5480000 C 46.619000,5.9590000 51.550000,12.158000 51.550000,12.158000 L 61.866000,14.094000 C 61.866000,14.094000 64.244000,7.8870000 64.565000,7.0470000 C 65.420000,7.4090000 75.103000,11.505000 75.642000,11.734000 C 75.659000,12.303000 75.792000,17.138000 75.792000,17.138000 L 87.183000,24.888000 C 87.183000,24.888000 93.107000,21.995000 93.667000,21.722000 C 94.122000,22.145000 101.15400,28.684000 101.74500,29.234000 C 101.28200,29.851000 98.143000,34.037000 98.143000,34.037000 L 106.07900,44.512000 C 106.07900,44.512000 114.08300,46.226000 114.53000,46.322000 C 114.73000,46.727000 119.18400,55.767000 119.44700,56.300000 C 119.06400,56.770000 112.25900,65.125000 112.25900,65.125000 L 112.41000,67.871000 C 112.41000,67.871000 122.09000,75.096000 122.54000,75.432000 C 122.46600,75.979000 121.07500,86.215000 121.03400,86.520000 C 120.82100,86.743000 111.63300,96.377000 111.14300,96.889000 C 110.55400,96.580000 104.85000,93.410000 104.85000,93.410000 C 104.85000,93.410000 109.46100,102.64200 109.82600,103.32600 C 109.67600,103.50400 100.70900,114.08400 100.58800,114.22600 C 100.42800,114.31200 91.197000,119.22400 90.455000,119.62100 C 89.988000,118.90200 82.903000,108.01200 82.903000,108.01200 L 74.674000,108.28900 C 74.674000,108.28900 74.180000,111.63500 74.146000,111.86700 C 73.999000,112.06200 66.562000,121.93500 66.206000,122.41000 C 65.633000,122.29500 53.424000,119.86500 52.687000,119.71900 C 52.680000,118.94800 52.548000,104.36900 52.548000,104.36900 L 38.714000,95.865000 C 38.714000,95.865000 28.594000,103.18700 27.907000,103.68300 C 27.348000,103.05000 17.541000,91.960000 17.200000,91.576000 C 17.341000,91.080000 20.267000,80.685000 20.341000,80.428000 C 20.533000,80.248000 23.813000,77.199000 23.813000,77.199000 L 19.664000,68.760000 C 19.664000,68.760000 7.5230000,67.512000 6.7650000,67.434000 C 6.6860000,66.676000 5.4090000,54.331000 5.3970000,54.209000 C 5.4150000,54.089000 7.1330000,42.732000 7.2490000,41.962000 C 8.0280000,41.941000 19.913000,41.620000 19.913000,41.620000 C 19.913000,41.620000 13.061000,35.368000 12.708000,35.046000 C 12.761000,34.567000 14.013000,22.982000 14.046000,22.686000 C 14.234000,22.466000 19.890000,15.900000 20.352000,15.363000 C 21.003000,15.688000 30.547000,20.461000 30.547000,20.461000 L 33.638000,19.080000 C 33.638000,19.080000 35.050000,7.6700000 35.140000,6.9460000 C 35.845000,6.8560000 45.778000,5.6130000 46.292000,5.5480000 z "
       id="path2538"
       style="fill:url(#XMLID_6_)" />
    <path
       d="M 53.429000,74.479000 C 43.811000,68.237000 36.867000,58.862000 34.856000,49.407000 C 33.473000,42.908000 34.438000,36.860000 37.647000,31.917000 C 40.856000,26.973000 45.987000,23.629000 52.487000,22.247000 C 61.943000,20.235000 73.331000,22.762000 82.948000,29.006000 C 86.534000,31.334000 89.664000,34.038000 92.312000,36.964000 C 93.827000,33.544000 95.096000,29.996000 96.111000,26.345000 C 94.805000,25.131000 93.569000,23.981000 93.050000,23.499000 C 91.694000,24.162000 87.544000,26.189000 87.544000,26.189000 C 87.061000,26.425000 86.487000,26.384000 86.042000,26.082000 L 75.271000,18.752000 C 74.873000,18.481000 74.628000,18.035000 74.616000,17.553000 C 74.616000,17.553000 74.529000,14.432000 74.494000,13.132000 C 73.178000,12.576000 67.153000,10.028000 65.142000,9.1780000 C 64.443000,11.005000 63.006000,14.757000 63.006000,14.757000 C 62.747000,15.433000 62.041000,15.828000 61.329000,15.695000 L 51.757000,13.900000 C 51.403000,13.834000 51.084000,13.642000 50.860000,13.359000 C 50.860000,13.359000 47.012000,8.5210000 46.155000,7.4430000 C 45.026000,7.5960000 40.710000,8.1790000 38.145000,8.5260000 C 39.504000,10.886000 42.114000,15.415000 42.114000,15.415000 C 42.247000,15.645000 42.315000,15.903000 42.315000,16.164000 C 42.315000,16.320000 42.290000,16.476000 42.241000,16.627000 C 42.110000,17.031000 41.813000,17.360000 41.427000,17.533000 L 31.704000,21.872000 C 31.294000,22.055000 30.824000,22.045000 30.423000,21.844000 C 30.423000,21.844000 23.038000,18.151000 21.323000,17.294000 C 20.370000,18.455000 18.119000,21.200000 16.934000,22.644000 C 18.801000,24.066000 25.122000,28.883000 25.122000,28.883000 C 25.499000,29.170000 25.714000,29.614000 25.714000,30.076000 C 25.714000,30.186000 25.701000,30.297000 25.677000,30.408000 L 23.132000,41.627000 C 22.985000,42.280000 22.422000,42.756000 21.753000,42.793000 C 21.753000,42.793000 12.471000,43.314000 10.019000,43.451000 C 10.261000,45.672000 11.021000,52.668000 11.213000,54.431000 C 13.231000,54.628000 23.760000,55.658000 23.760000,55.658000 C 24.267000,55.707000 24.713000,56.010000 24.947000,56.462000 L 31.828000,69.774000 C 31.941000,69.991000 31.996000,70.227000 31.996000,70.462000 C 31.996000,70.862000 31.836000,71.257000 31.531000,71.548000 C 31.531000,71.548000 24.576000,78.183000 22.881000,79.802000 C 23.531000,80.501000 25.145000,82.238000 26.897000,84.122000 C 37.091000,83.054000 46.709000,80.120000 55.409000,75.692000 C 54.740000,75.303000 54.080000,74.902000 53.429000,74.479000 z "
       id="path2545"
       style="fill:url(#linearGradient4044);fill-opacity:1.0000000" />
    <path
       d="M 128.00000,128.00000 L 0.0000000,128.00000 L 0.0000000,0.0000000 L 128.00000,0.0000000 L 128.00000,128.00000 z "
       id="path2547"
       style="fill:none" />
  </g>
</svg>
