<?xml version="1.0" encoding="UTF-8" standalone="no"?>
<!-- Created with Inkscape (http://www.inkscape.org/) -->
<svg
   xmlns:dc="http://purl.org/dc/elements/1.1/"
   xmlns:cc="http://web.resource.org/cc/"
   xmlns:rdf="http://www.w3.org/1999/02/22-rdf-syntax-ns#"
   xmlns:svg="http://www.w3.org/2000/svg"
   xmlns="http://www.w3.org/2000/svg"
   xmlns:xlink="http://www.w3.org/1999/xlink"
   xmlns:sodipodi="http://inkscape.sourceforge.net/DTD/sodipodi-0.dtd"
   xmlns:inkscape="http://www.inkscape.org/namespaces/inkscape"
   id="svg1"
   sodipodi:version="0.32"
   inkscape:version="0.42"
   width="128.00000pt"
   height="128.00000pt"
   sodipodi:docbase="/lhome/eric/Fmgr"
   sodipodi:docname="gnome-mime-spreadsheet.svg"
   inkscape:export-filename="/lhome/eric/Fmgr/gnome-mime-spreadsheet.png"
   inkscape:export-xdpi="29.940001"
   inkscape:export-ydpi="29.940001">
  <defs
     id="defs3">
    <radialGradient
       xlink:href="#linearGradient853"
       id="radialGradient864"
       cx="0.50000000"
       cy="0.50000000"
       r="0.50000000"
       fx="0.50000000"
       fy="0.14942528" />
    <linearGradient
       id="linearGradient841">
      <stop
         style="stop-color:#ffffff;stop-opacity:1.0000000;"
         offset="0.00000000"
         id="stop842" />
      <stop
         style="stop-color:#ffffff;stop-opacity:0.00000000;"
         offset="1.0000000"
         id="stop843" />
    </linearGradient>
    <linearGradient
       id="linearGradient1290">
      <stop
         style="stop-color:#6c708f;stop-opacity:1.0000000;"
         offset="0.0000000"
         id="stop1291" />
      <stop
         style="stop-color:#afbfea;stop-opacity:1.0000000;"
         offset="0.19092308"
         id="stop1546" />
      <stop
         style="stop-color:#485877;stop-opacity:1.0000000;"
         offset="1.0000000"
         id="stop1292" />
    </linearGradient>
    <linearGradient
       xlink:href="#linearGradient1290"
       id="linearGradient860"
       x1="0.47535211"
       y1="0.81081080"
       x2="0.50000000"
       y2="-0.74324322" />
    <linearGradient
       xlink:href="#linearGradient846"
       id="linearGradient851"
       x1="0.39788732"
       y1="0.32222223"
       x2="0.80985916"
       y2="0.35555556" />
    <linearGradient
       xlink:href="#linearGradient846"
       id="linearGradient858"
       x1="0.64285713"
       y1="1.2647059"
       x2="0.57142860"
       y2="0.049019609" />
    <linearGradient
       id="linearGradient846">
      <stop
         style="stop-color:#e7e7e7;stop-opacity:1.0000000;"
         offset="0.00000000"
         id="stop847" />
      <stop
         style="stop-color:#a5a5a5;stop-opacity:1.0000000;"
         offset="1.0000000"
         id="stop848" />
    </linearGradient>
    <linearGradient
       xlink:href="#linearGradient846"
       id="linearGradient850" />
    <linearGradient
       xlink:href="#linearGradient853"
       id="linearGradient859"
       x1="1.4647887"
       y1="-1.1486486"
       x2="0.26408452"
       y2="1.2905406" />
    <linearGradient
       id="linearGradient853">
      <stop
         style="stop-color:#000000;stop-opacity:0.29752067;"
         offset="0.00000000"
         id="stop854" />
      <stop
         style="stop-color:#000000;stop-opacity:0.00000000;"
         offset="1.0000000"
         id="stop855" />
    </linearGradient>
    <radialGradient
       xlink:href="#linearGradient853"
       id="radialGradient861"
       cx="0.50000000"
       cy="0.50000000"
       r="0.50000000"
       fx="0.50704223"
       fy="0.29885057" />
    <linearGradient
       id="linearGradient1507">
      <stop
         style="stop-color:#000000;stop-opacity:0.095505618;"
         offset="0.0000000"
         id="stop1508" />
      <stop
         style="stop-color:#000000;stop-opacity:0.0000000;"
         offset="1.0000000"
         id="stop1510" />
    </linearGradient>
    <linearGradient
       id="linearGradient1501">
      <stop
         style="stop-color:#ffffff;stop-opacity:1.0000000;"
         offset="0.0000000"
         id="stop1502" />
      <stop
         style="stop-color:#ffffff;stop-opacity:0.0000000;"
         offset="1.0000000"
         id="stop1504" />
    </linearGradient>
    <linearGradient
       id="linearGradient1492">
      <stop
         style="stop-color:#dadada;stop-opacity:1.0000000;"
         offset="0.0000000"
         id="stop1493" />
      <stop
         style="stop-color:#f1f1f1;stop-opacity:1.0000000;"
         offset="0.34923077"
         id="stop1496" />
      <stop
         style="stop-color:#f0f0f0;stop-opacity:1.0000000;"
         offset="1.0000000"
         id="stop1494" />
    </linearGradient>
    <linearGradient
       xlink:href="#linearGradient1492"
       id="linearGradient1495"
       x1="0.88034189"
       y1="0.21093750"
       x2="0.085470088"
       y2="1.1796875" />
    <linearGradient
       xlink:href="#linearGradient1492"
       id="linearGradient1497"
       x1="0.63247865"
       y1="0.32812500"
       x2="-0.37606838"
       y2="1.3281250" />
    <linearGradient
       xlink:href="#linearGradient1501"
       id="linearGradient1499"
       x1="0.85826772"
       y1="0.14062500"
       x2="0.062992126"
       y2="0.54687500" />
    <linearGradient
       xlink:href="#linearGradient1507"
       id="linearGradient1506"
       x1="0.052173913"
       y1="0.97656250"
       x2="0.78260869"
       y2="0.0078125000" />
    <linearGradient
       xlink:href="#linearGradient1507"
       id="linearGradient1556"
       x1="0.31111112"
       y1="-0.56250000"
       x2="0.62222224"
       y2="0.79687500" />
    <radialGradient
       xlink:href="#linearGradient841"
       id="radialGradient856"
       cx="0.50000000"
       cy="0.89285713"
       r="0.54606670"
       fx="0.54117650"
       fy="3.5200000" />
    <linearGradient
       xlink:href="#linearGradient841"
       id="linearGradient1944" />
    <linearGradient
       xlink:href="#linearGradient1290"
       id="linearGradient852"
       x1="3.5236571e-18"
       y1="0.50000000"
       x2="1.0000000"
       y2="0.50000000" />
    <linearGradient
       xlink:href="#linearGradient841"
       id="linearGradient844"
       x1="-0.074509807"
       y1="-0.77999997"
       x2="0.58823532"
       y2="1.1000000" />
    <linearGradient
       xlink:href="#linearGradient1290"
       id="linearGradient845"
       x1="0.49019608"
       y1="-0.14705883"
       x2="1.0313725"
       y2="13.117647" />
    <linearGradient
       xlink:href="#linearGradient853"
       id="linearGradient840"
       x1="0.81278539"
       y1="0.30817610"
       x2="0.38812786"
       y2="0.88050312" />
    <linearGradient
       xlink:href="#linearGradient853"
       id="linearGradient849"
       x1="0.78142077"
       y1="0.060606062"
       x2="0.56284153"
       y2="0.91666669" />
  </defs>
  <sodipodi:namedview
     id="base"
     pagecolor="#ffffff"
     bordercolor="#666666"
     borderopacity="1.0"
     inkscape:pageopacity="0.0"
     inkscape:pageshadow="2"
     inkscape:zoom="1.9655569"
     inkscape:cx="86.959374"
     inkscape:cy="34.255320"
     inkscape:window-width="445"
     inkscape:window-height="550"
     inkscape:window-x="23"
     inkscape:window-y="113"
     showgrid="false"
     snaptogrid="true"
     showborder="true"
     showguides="true"
     snaptoguides="true" />
  <path
     style="fill:#ffffff;fill-rule:evenodd;stroke-width:0.42649043;stroke-opacity:0.36477986;"
     d="M 17.159384,6.3292894 L 17.159384,43.068526 L 17.159384,79.807768 L 17.159384,116.54700 L 17.159384,153.28624 L 50.687024,153.28624 L 84.214664,153.28624 L 117.74230,153.28624 L 151.26994,153.28624 L 151.26994,116.54700 L 151.26994,79.807768 L 151.26994,43.068526 L 117.74230,6.3292894 L 84.214664,6.3292894 L 50.687024,6.3292894 L 17.159384,6.3292894 z "
     id="path930"
     sodipodi:nodetypes="cccccccccccccccc" />
  <g
     id="g1552"
     transform="matrix(0.304171,0.000000,0.000000,0.297572,-36.70399,-112.4880)"
     style="fill:url(#linearGradient1506);">
    <path
       style="fill-opacity:0.75000000;fill-rule:evenodd;stroke-width:0.95407495pt;"
       d="M 173.35959,408.81260 L 173.35959,531.07360 L 173.35959,653.33460 L 173.35959,775.59560 L 173.35959,897.85660 L 282.12187,897.85660 L 390.88417,897.85660 L 499.64646,897.85660 L 608.40874,897.85660 L 608.40874,775.59560 L 608.40874,653.33460 L 608.40874,531.07360 L 499.64646,408.81260 L 390.88417,408.81260 L 282.12187,408.81260 L 173.35959,408.81260 z "
       id="path1505"
       sodipodi:nodetypes="cccccccccccccccc" />
    <path
       style="fill-opacity:0.75000000;fill-rule:evenodd;stroke-width:0.95407495pt;"
       d="M 170.12500,407.18750 C 170.12500,571.82292 170.12500,736.45833 170.12500,901.09375 C 317.30208,901.09375 464.47917,901.09375 611.65625,901.09375 C 611.65625,777.33333 611.65625,653.57292 611.65625,529.81250 C 574.80918,488.38978 537.97604,446.95335 501.09375,405.56250 C 390.77083,405.56250 280.44792,405.56250 170.12500,405.56250 C 170.12500,405.89583 170.12500,406.97917 170.12500,407.18750 z "
       id="path1538" />
    <path
       style="fill-opacity:0.75000000;fill-rule:evenodd;stroke-width:0.95407495pt;"
       d="M 166.87500,403.93750 C 166.87500,570.73958 166.87500,737.54167 166.87500,904.34375 C 316.21875,904.34375 465.56250,904.34375 614.90625,904.34375 C 614.90625,779.08333 614.90625,653.82292 614.90625,528.56250 C 577.45517,486.47298 540.01754,444.37017 502.53125,402.31250 C 390.64583,402.31250 278.76042,402.31250 166.87500,402.31250 C 166.87500,402.64583 166.87500,403.72917 166.87500,403.93750 z "
       id="path1543" />
  </g>
  <path
     style="fill:url(#linearGradient1495);fill-opacity:0.75000000;fill-rule:evenodd;stroke:#000000;stroke-width:1.4375000;stroke-opacity:0.36477986;"
     d="M 297.99034,136.74154 L 297.99034,260.57234 L 297.99034,384.40315 L 297.99034,508.23395 L 297.99034,632.06475 L 410.99634,632.06475 L 524.00235,632.06475 L 637.00835,632.06475 L 750.01435,632.06475 L 750.01435,508.23395 L 750.01435,384.40315 L 750.01435,260.57234 L 637.00835,136.74154 L 524.00235,136.74154 L 410.99634,136.74154 L 297.99034,136.74154 z "
     id="rect900"
     sodipodi:nodetypes="cccccccccccccccc"
     transform="matrix(0.296689,0.000000,0.000000,0.296689,-71.19601,-34.05825)" />
  <path
     style="fill-opacity:0.075471647;fill-rule:evenodd;stroke-width:0.50000000;fill:url(#linearGradient849);stroke:url(#linearGradient840);stroke-opacity:0.44654086;stroke-miterlimit:4.0000000;stroke-dasharray:none;"
     d="M 31.963103,53.700787 L 31.963103,54.796948 L 31.963103,67.745348 L 31.963103,68.841508 L 31.963103,80.693748 L 31.963103,81.789907 L 31.963103,93.642145 L 31.963103,94.738295 L 31.963103,106.59053 L 31.963103,107.68670 L 31.963103,119.51609 L 31.963103,120.61226 L 31.963103,132.46449 L 31.963103,133.56065 L 32.976747,133.56065 L 67.884108,133.56065 L 68.897752,133.56065 L 69.911395,133.56065 L 103.78399,133.56065 L 104.79763,133.56065 L 105.81128,133.56065 L 140.71864,133.56065 L 141.73228,133.56065 L 141.73228,132.46449 L 141.73228,119.51609 L 141.73228,118.41994 L 141.73228,106.59053 L 141.73228,105.49438 L 141.73228,93.642145 L 141.73228,92.545985 L 141.73228,80.693748 L 141.73228,79.597585 L 141.73228,67.745348 L 141.73228,66.649188 L 141.73228,54.796948 L 141.73228,53.700787 L 140.71864,53.700787 L 105.81128,53.700787 L 104.79763,53.700787 L 69.911395,53.700787 L 68.897752,53.700787 L 32.976747,53.700787 L 31.963103,53.700787 z M 33.990391,55.893109 L 67.884108,55.893109 L 67.884108,66.649188 L 33.990391,66.649188 L 33.990391,55.893109 z M 69.911395,55.893109 L 103.78399,55.893109 L 103.78399,66.649188 L 69.911395,66.649188 L 69.911395,55.893109 z M 105.81128,55.893109 L 139.70499,55.893109 L 139.70499,66.649188 L 105.81128,66.649188 L 105.81128,55.893109 z M 33.990391,68.841508 L 67.884108,68.841508 L 67.884108,79.597585 L 33.990391,79.597585 L 33.990391,68.841508 z M 69.911395,68.841508 L 103.78399,68.841508 L 103.78399,79.597585 L 69.911395,79.597585 L 69.911395,68.841508 z M 105.81128,68.841508 L 139.70499,68.841508 L 139.70499,79.597585 L 105.81128,79.597585 L 105.81128,68.841508 z M 33.990391,81.789907 L 67.884108,81.789907 L 67.884108,92.545985 L 33.990391,92.545985 L 33.990391,81.789907 z M 69.911395,81.789907 L 103.78399,81.789907 L 103.78399,92.545985 L 69.911395,92.545985 L 69.911395,81.789907 z M 105.81128,81.789907 L 139.70499,81.789907 L 139.70499,92.545985 L 105.81128,92.545985 L 105.81128,81.789907 z M 33.990391,94.738295 L 67.884108,94.738295 L 67.884108,105.49438 L 33.990391,105.49438 L 33.990391,94.738295 z M 69.911395,94.738295 L 103.78399,94.738295 L 103.78399,105.49438 L 69.911395,105.49438 L 69.911395,94.738295 z M 105.81128,94.738295 L 139.70499,94.738295 L 139.70499,105.49438 L 105.81128,105.49438 L 105.81128,94.738295 z M 33.990391,107.68670 L 67.884108,107.68670 L 67.884108,118.41994 L 33.990391,118.41994 L 33.990391,107.68670 z M 69.911395,107.68670 L 103.78399,107.68670 L 103.78399,118.41994 L 69.911395,118.41994 L 69.911395,107.68670 z M 105.81128,107.68670 L 139.70499,107.68670 L 139.70499,118.41994 L 105.81128,118.41994 L 105.81128,107.68670 z M 33.990391,120.61226 L 67.884108,120.61226 L 67.884108,131.36833 L 33.990391,131.36833 L 33.990391,120.61226 z M 69.911395,120.61226 L 103.78399,120.61226 L 103.78399,131.36833 L 69.911395,131.36833 L 69.911395,120.61226 z M 105.81128,120.61226 L 139.70499,120.61226 L 139.70499,131.36833 L 105.81128,131.36833 L 105.81128,120.61226 z "
     id="path1582" />
  <path
     style="fill:url(#linearGradient1499);fill-opacity:0.75000000;fill-rule:evenodd;stroke-width:1.0000000pt;"
     d="M 301.30655,174.90867 L 299.27069,628.90434 L 743.08709,628.90434 L 743.34157,516.67783 C 733.41677,520.49506 633.15091,378.49417 506.92790,384.60173 C 380.59029,390.71484 413.27857,193.23136 301.30655,174.90867 z "
     id="path1500"
     sodipodi:nodetypes="cccczc"
     transform="matrix(0.296689,0.000000,0.000000,0.296689,-71.19601,-34.05825)" />
  <path
     style="fill:url(#linearGradient1497);fill-opacity:0.75000000;fill-rule:evenodd;stroke-width:0.95407495pt;"
     d="M 750.01435,260.57234 C 715.94460,250.48602 671.79788,251.91624 638.44792,257.66516 C 644.20618,220.71628 644.92597,174.41021 637.00835,136.74154 L 750.01435,260.57234 z "
     id="path906"
     sodipodi:nodetypes="cccc"
     transform="matrix(0.296689,0.000000,0.000000,0.296689,-71.19601,-34.05825)" />
  <rect
     style="fill:#7b7b7b;fill-opacity:0.43396226;fill-rule:evenodd;stroke-width:1.0000000pt;"
     id="rect1534"
     width="74.377357"
     height="20.954082"
     x="31.921856"
     y="18.267717" />
  <g
     id="g1559"
     transform="translate(-36.52665,149.4445)">
    <path
       style="fill:url(#linearGradient852);fill-opacity:0.75000000;fill-rule:evenodd;stroke-width:0.99417171pt;"
       d="M 141.11455,-40.911483 C 141.11455,-29.835507 106.40164,-24.807731 88.582677,-24.807731 C 70.763711,-24.807731 36.050806,-29.835507 36.050806,-40.911483 L 36.050807,-51.973425 L 88.582682,-51.973425 L 141.11455,-51.973425 L 141.11455,-40.911483 z "
       id="path951"
       sodipodi:nodetypes="czccccc"
       transform="matrix(1.000000,0.000000,0.000000,1.456607,53.69640,36.68630)" />
    <path
       transform="matrix(0.989658,0.000000,0.000000,1.150435,54.61256,0.200436)"
       style="fill:#ba3100;fill-rule:evenodd;stroke-width:1.0000000pt;"
       d="M 141.73228,-34.881889 C 141.73228,-25.102362 35.433075,-25.102362 35.433075,-34.881889 C 35.433075,-44.661417 59.244098,-52.598425 88.582680,-52.598425 C 117.92126,-52.598425 141.73228,-44.661417 141.73228,-34.881889 z "
       id="path952"
       sodipodi:nodetypes="cccc" />
    <path
       style="fill:url(#linearGradient845);fill-opacity:0.75000000;fill-rule:evenodd;stroke-width:1.0000000pt;"
       d="M 141.73228,-34.881889 C 141.73228,-25.102362 117.92126,-17.165354 88.582680,-17.165354 C 59.244098,-17.165354 35.433075,-25.102362 35.433075,-34.881889 L 141.73228,-34.881889 z "
       id="path957"
       sodipodi:nodetypes="cccc"
       transform="matrix(0.989658,0.000000,0.000000,1.150435,54.60963,0.200436)" />
    <path
       style="fill:#55a734;fill-rule:evenodd;stroke-width:1.0000000pt;"
       d="M 141.73228,-34.881889 C 141.73228,-25.102362 117.92126,-17.165354 88.582680,-17.165354 L 88.579760,-34.881895 L 126.15945,-47.407480 C 135.77953,-44.200787 141.73228,-39.771653 141.73228,-34.881889 z "
       id="path955"
       sodipodi:nodetypes="ccccc"
       transform="matrix(0.989658,0.000000,0.000000,1.150435,54.61541,0.200436)" />
    <path
       sodipodi:type="arc"
       style="fill:url(#linearGradient844);fill-opacity:0.75000000;fill-rule:evenodd;stroke-width:1.0000000pt;"
       id="path1545"
       sodipodi:cx="88.582680"
       sodipodi:cy="-34.881889"
       sodipodi:rx="53.149605"
       sodipodi:ry="17.716536"
       d="M 141.73228 -34.881889 A 53.149605 17.716536 0 1 0 35.433075,-34.881889 A 53.149605 17.716536 0 1 0 141.73228 -34.881889 z"
       transform="matrix(0.833333,0.000000,0.000000,0.844264,68.46021,-10.47941)" />
  </g>
  <metadata
     id="metadata63">
    <rdf:RDF>
      <cc:Work
         rdf:about="">
        <dc:title>Etiquette Icons</dc:title>
        <dc:description />
        <dc:subject>
          <rdf:Bag>
            <rdf:li>computer</rdf:li>
            <rdf:li>icons</rdf:li>
            <rdf:li>mime-types</rdf:li>
          </rdf:Bag>
        </dc:subject>
        <dc:publisher>
          <cc:Agent
             rdf:about="">
            <dc:title />
          </cc:Agent>
        </dc:publisher>
        <dc:creator>
          <cc:Agent
             rdf:about="">
            <dc:title>Andy Fitzsimon</dc:title>
          </cc:Agent>
        </dc:creator>
        <dc:rights>
          <cc:Agent
             rdf:about="">
            <dc:title>Andy Fitzsimon</dc:title>
          </cc:Agent>
        </dc:rights>
        <dc:date />
        <dc:format>image/svg+xml</dc:format>
        <dc:type
           rdf:resource="http://purl.org/dc/dcmitype/StillImage" />
        <cc:license
           rdf:resource="http://web.resource.org/cc/PublicDomain">
          <dc:date />
        </cc:license>
        <dc:language>en</dc:language>
      </cc:Work>
      <cc:License
         rdf:about="http://web.resource.org/cc/PublicDomain">
        <cc:permits
           rdf:resource="http://web.resource.org/cc/Reproduction" />
        <cc:permits
           rdf:resource="http://web.resource.org/cc/Distribution" />
        <cc:permits
           rdf:resource="http://web.resource.org/cc/DerivativeWorks" />
      </cc:License>
    </rdf:RDF>
  </metadata>
</svg>
