<?xml version="1.0" encoding="UTF-8" standalone="no"?>
<!-- Created with Sodipodi ("http://www.sodipodi.com/") -->
<svg
   xmlns:dc="http://purl.org/dc/elements/1.1/"
   xmlns:cc="http://web.resource.org/cc/"
   xmlns:rdf="http://www.w3.org/1999/02/22-rdf-syntax-ns#"
   xmlns:svg="http://www.w3.org/2000/svg"
   xmlns="http://www.w3.org/2000/svg"
   xmlns:xlink="http://www.w3.org/1999/xlink"
   xmlns:sodipodi="http://inkscape.sourceforge.net/DTD/sodipodi-0.dtd"
   xmlns:inkscape="http://www.inkscape.org/namespaces/inkscape"
   id="svg548"
   sodipodi:version="0.32"
   width="400pt"
   height="400pt"
   sodipodi:docbase="/lhome/eric/Fmgr"
   sodipodi:docname="smiley001.svg"
   inkscape:version="0.42"
   inkscape:export-filename="/lhome/eric/Fmgr/smiley001.png"
   inkscape:export-xdpi="23.719999"
   inkscape:export-ydpi="23.719999">
  <metadata
     id="metadata26" />
  <defs
     id="defs550">
    <linearGradient
       id="linearGradient608">
      <stop
         style="stop-color:#ffffff;stop-opacity:1;"
         offset="0.000000"
         id="stop609" />
      <stop
         style="stop-color:#000000;stop-opacity:1;"
         offset="1.000000"
         id="stop610" />
    </linearGradient>
    <linearGradient
       id="linearGradient601">
      <stop
         style="stop-color:#e6cd00;stop-opacity:1;"
         offset="0.000000"
         id="stop602" />
      <stop
         style="stop-color:#ff9f2d;stop-opacity:1;"
         offset="1.000000"
         id="stop603" />
    </linearGradient>
    <radialGradient
       xlink:href="#linearGradient601"
       id="radialGradient604"
       cx="0.30468768"
       cy="0.32812488"
       fx="0.30468768"
       fy="0.32812488"
       r="0.32960984"
       gradientUnits="objectBoundingBox"
       spreadMethod="pad" />
    <radialGradient
       xlink:href="#linearGradient608"
       id="radialGradient607"
       cx="0.44804481"
       cy="0.97655141"
       fx="0.44804481"
       fy="0.97655141"
       r="0.77106810"
       gradientUnits="objectBoundingBox"
       spreadMethod="pad" />
    <radialGradient
       xlink:href="#linearGradient608"
       id="radialGradient636" />
  </defs>
  <sodipodi:namedview
     id="base"
     inkscape:zoom="0.72200000"
     inkscape:cx="250.00000"
     inkscape:cy="250.00000"
     inkscape:window-width="772"
     inkscape:window-height="518"
     inkscape:window-x="6"
     inkscape:window-y="74"
     inkscape:current-layer="svg548" />
  <g
     id="g630"
     style="fill:#ff0000;fill-opacity:1;">
    <path
       style="font-size:12;fill:#ff0000;fill-rule:evenodd;stroke:#000000;stroke-width:3.75;fill-opacity:1;"
       d="M 147.495 344.111 C 147.495 344.111 217.045 393.276 253.019 394.475 C 287.794 392.077 344.154 342.912 344.154 342.912 L 344.154 342.912 "
       id="path623"
       sodipodi:nodetypes="cccc" />
    <path
       style="fill:#ff0000;fill-rule:evenodd;stroke:black;stroke-opacity:1;stroke-width:1pt;stroke-linejoin:miter;stroke-linecap:butt;fill-opacity:1;"
       d="M 146.296 344.111 C 146.296 344.111 199.058 362.098 200.257 362.098 C 201.456 362.098 238.63 369.293 238.63 369.293 L 291.392 366.895 C 291.392 366.895 318.972 354.904 320.171 354.904 C 321.371 354.904 344.154 344.111 344.154 344.111 "
       id="path629" />
  </g>
  <path
     sodipodi:type="arc"
     style="fill-rule:evenodd;stroke:none;fill:url(#radialGradient604);fill-opacity:1;stroke-opacity:1;stroke-width:0;stroke-linejoin:miter;stroke-linecap:butt;stroke-dasharray:none;"
     id="path600"
     d="M 491.648560 259.571869 A 229.036285 224.839264 0 1 0 33.575989,259.571869 A 229.036 224.839 0 1 0 491.649 259.572 L 262.612274 259.571869 z"
     sodipodi:cx="262.612274"
     sodipodi:cy="259.571869"
     sodipodi:rx="229.036285"
     sodipodi:ry="224.839264"
     transform="matrix(1.060209,0.000000,0.000000,1.085333,-27.20359,-30.54409)" />
  <g
     id="g611"
     transform="translate(-12.44173,20.21950)">
    <path
       sodipodi:type="arc"
       style="fill-rule:evenodd;stroke:#000000;fill:#ffffff;fill-opacity:1;stroke-opacity:1;stroke-width:2.5;stroke-linejoin:miter;stroke-linecap:butt;stroke-dasharray:none;"
       id="path605"
       d="M 171.477417 149.250732 A 17.987137 17.387566 0 1 0 135.503143,149.250732 A 17.9871 17.3876 0 1 0 171.477 149.251 L 153.490280 149.250732 z"
       sodipodi:cx="153.490280"
       sodipodi:cy="149.250732"
       sodipodi:rx="17.987137"
       sodipodi:ry="17.387566" />
    <path
       sodipodi:type="arc"
       style="fill-rule:evenodd;stroke:none;fill:url(#radialGradient607);fill-opacity:1;stroke-opacity:1;stroke-width:1pt;stroke-linejoin:miter;stroke-linecap:butt;"
       id="path606"
       d="M 166.680847 161.242157 A 12.590996 12.591003 0 1 0 141.498840,161.242157 A 12.591 12.591 0 1 0 166.681 161.242 L 154.089844 161.242157 z"
       sodipodi:cx="154.089844"
       sodipodi:cy="161.242157"
       sodipodi:rx="12.590996"
       sodipodi:ry="12.591003"
       transform="matrix(1.238095,0.000000,0.000000,1.000000,-37.28761,-8.394012)" />
  </g>
  <g
     id="g614"
     transform="translate(203.4041,17.82120)">
    <path
       sodipodi:type="arc"
       style="fill-rule:evenodd;stroke:#000000;fill:#ffffff;fill-opacity:1;stroke-opacity:1;stroke-width:2.5;stroke-linejoin:miter;stroke-linecap:butt;stroke-dasharray:none;"
       id="path615"
       d="M 171.477417 149.250732 A 17.987137 17.387566 0 1 0 135.503143,149.250732 A 17.9871 17.3876 0 1 0 171.477 149.251 L 153.490280 149.250732 z"
       sodipodi:cx="153.490280"
       sodipodi:cy="149.250732"
       sodipodi:rx="17.987137"
       sodipodi:ry="17.387566" />
    <path
       sodipodi:type="arc"
       style="fill-rule:evenodd;stroke:none;fill:url(#radialGradient607);fill-opacity:1;stroke-opacity:1;stroke-width:1pt;stroke-linejoin:miter;stroke-linecap:butt;"
       id="path616"
       d="M 166.680847 161.242157 A 12.590996 12.591003 0 1 0 141.498840,161.242157 A 12.591 12.591 0 1 0 166.681 161.242 L 154.089844 161.242157 z"
       sodipodi:cx="154.089844"
       sodipodi:cy="161.242157"
       sodipodi:rx="12.590996"
       sodipodi:ry="12.591003"
       transform="matrix(1.238095,0.000000,0.000000,1.000000,-37.28761,-8.394012)" />
  </g>
  <path
     style="fill:#ff0000;fill-rule:evenodd;stroke:black;stroke-opacity:1;stroke-width:3.75;stroke-linejoin:miter;stroke-linecap:butt;fill-opacity:1;stroke-dasharray:none;"
     d="M 153.49 346.51 C 153.49 346.51 208.652 388.48 253.019 387.281 C 293.79 387.28 356.146 335.718 356.146 335.718 L 320.171 354.904 L 280.599 368.094 L 235.032 369.293 L 196.66 363.298 L 153.49 346.51 z "
     id="path637"
     sodipodi:nodetypes="cccccccc" />
  <path
     style="font-size:12;fill:none;fill-rule:evenodd;stroke:#000000;stroke-width:3.75;"
     d="M 104.325 314.133 C 106.723 316.531 165.482 370.493 255.418 369.293 C 339.357 368.094 388.523 305.738 388.523 305.738 "
     id="path622"
     sodipodi:nodetypes="ccc" />
  <metadata
     id="metadata28">
    <rdf:RDF>
      <cc:Work
         rdf:about="">
        <dc:title>Clipart by Nicu Buculei - smiley111</dc:title>
        <dc:rights>
          <cc:Agent>
            <dc:title>Nicu Buculei</dc:title>
          </cc:Agent>
        </dc:rights>
        <dc:type
           rdf:resource="http://purl.org/dc/dcmitype/StillImage" />
        <cc:license
           rdf:resource="http://web.resource.org/cc/PublicDomain" />
        <dc:format>image/svg+xml</dc:format>
      </cc:Work>
      <cc:License
         rdf:about="http://web.resource.org/cc/PublicDomain">
        <cc:permits
           rdf:resource="http://web.resource.org/cc/Reproduction" />
        <cc:permits
           rdf:resource="http://web.resource.org/cc/Distribution" />
        <cc:permits
           rdf:resource="http://web.resource.org/cc/DerivativeWorks" />
      </cc:License>
    </rdf:RDF>
  </metadata>
</svg>
